<!-- <?xml version="1.0" standalone="no"?>
<!DOCTYPE svg PUBLIC "-//W3C//DTD SVG 20010904//EN"
 "http://www.w3.org/TR/2001/REC-SVG-20010904/DTD/svg10.dtd">
<svg version="1.0" xmlns="http://www.w3.org/2000/svg"
 width="1108.000000pt" height="1108.000000pt" viewBox="0 0 1108.000000 1108.000000"
 preserveAspectRatio="xMidYMid meet">

<g transform="translate(0.000000,1108.000000) scale(0.100000,-0.100000)"
fill="#000000" stroke="none">
<path d="M4891 10340 c-76 -16 -143 -41 -226 -83 -69 -35 -103 -64 -245 -205
-134 -132 -157 -159 -123 -141 106 53 232 31 318 -55 81 -81 105 -182 69 -292
-15 -45 -181 -214 -2190 -2224 l-2174 -2175 20 -172 c70 -619 231 -1167 505
-1728 377 -769 940 -1439 1634 -1939 l94 -68 174 173 c96 96 445 448 776 782
l601 608 -357 357 -357 357 49 12 c66 16 159 53 229 94 43 25 239 215 815 793
417 418 754 762 748 764 -5 2 -36 -12 -68 -29 -52 -30 -23 3 294 327 193 197
1119 1126 2057 2064 938 938 1706 1709 1706 1714 0 9 -145 147 -265 253 -101
88 -254 209 -369 292 l-88 64 -2582 -2581 c-2035 -2036 -2591 -2585 -2626
-2601 -65 -30 -169 -28 -235 3 -145 67 -203 235 -131 380 23 46 15 40 -125
-100 -83 -82 -170 -179 -194 -215 -43 -64 -105 -202 -105 -233 0 -8 -14 -23
-31 -32 l-32 -16 -366 366 -366 366 1956 1957 c2129 2130 2005 2000 2063 2174
136 409 -85 839 -499 969 -79 25 -277 36 -354 20z"/>
<path d="M8405 6870 c-92 -13 -208 -54 -288 -101 -51 -30 -119 -89 -232 -200
-152 -150 -157 -157 -108 -132 181 88 397 -49 397 -252 0 -125 194 78 -2574
-2690 -1392 -1392 -2530 -2534 -2530 -2538 0 -12 338 -174 491 -235 471 -190
948 -307 1489 -364 169 -18 812 -18 980 0 132 14 445 59 470 68 9 3 -211 230
-643 662 l-657 657 1896 1895 c1956 1955 1916 1916 1816 1750 -18 -31 -26 -38
113 100 133 131 201 227 243 344 32 88 56 213 50 261 -3 30 -4 30 -29 -19
l-26 -49 -6 119 c-10 230 -101 416 -273 558 -155 127 -385 193 -579 166z"/>
<path d="M386 6453 c-21 -118 -43 -289 -51 -393 l-7 -85 161 160 161 160 -122
122 c-68 68 -123 123 -124 123 -1 0 -9 -39 -18 -87z"/>
<path d="M8806 3221 c-1429 -1429 -1974 -1968 -2010 -1988 -44 -24 -62 -28
-131 -28 -92 0 -136 19 -197 82 -81 84 -102 206 -53 313 21 46 22 51 5 30 -37
-47 -90 -157 -105 -221 -26 -112 -14 -251 32 -358 l19 -45 -23 -20 -24 -21 35
-51 c50 -74 147 -157 231 -198 179 -89 377 -87 565 5 73 37 103 60 228 183
293 286 817 830 769 797 -26 -18 -52 -29 -58 -26 -5 4 -18 1 -27 -6 -36 -27
324 337 1415 1431 l1133 1135 29 125 c42 177 76 369 100 560 20 164 30 260 27
260 0 0 -883 -882 -1960 -1959z"/>
</g>
</svg> -->




<?xml version="1.0" standalone="no"?>
<!DOCTYPE svg PUBLIC "-//W3C//DTD SVG 20010904//EN"
 "http://www.w3.org/TR/2001/REC-SVG-20010904/DTD/svg10.dtd">
<svg version="1.0" xmlns="http://www.w3.org/2000/svg"
 width="1108.000000pt" height="1108.000000pt" viewBox="0 0 1108.000000 1108.000000"
 preserveAspectRatio="xMidYMid meet">

<g transform="translate(0.000000,1108.000000) scale(0.100000,-0.100000)"
fill="#000000" stroke="none">
<path d="M4891 10340 c-76 -16 -143 -41 -226 -83 -69 -35 -103 -64 -245 -205
-134 -132 -157 -159 -123 -141 106 53 232 31 318 -55 81 -81 105 -182 69 -292
-15 -45 -181 -214 -2190 -2224 l-2174 -2175 20 -172 c70 -619 231 -1167 505
-1728 377 -769 940 -1439 1634 -1939 l94 -68 174 173 c96 96 445 448 776 782
l601 608 -357 357 -357 357 49 12 c66 16 159 53 229 94 43 25 239 215 815 793
417 418 754 762 748 764 -5 2 -36 -12 -68 -29 -52 -30 -23 3 294 327 193 197
1119 1126 2057 2064 938 938 1706 1709 1706 1714 0 9 -145 147 -265 253 -101
88 -254 209 -369 292 l-88 64 -2582 -2581 c-2035 -2036 -2591 -2585 -2626
-2601 -65 -30 -169 -28 -235 3 -145 67 -203 235 -131 380 23 46 15 40 -125
-100 -83 -82 -170 -179 -194 -215 -43 -64 -105 -202 -105 -233 0 -8 -14 -23
-31 -32 l-32 -16 -366 366 -366 366 1956 1957 c2129 2130 2005 2000 2063 2174
136 409 -85 839 -499 969 -79 25 -277 36 -354 20z"/>
<path d="M8405 6870 c-92 -13 -208 -54 -288 -101 -51 -30 -119 -89 -232 -200
-152 -150 -157 -157 -108 -132 181 88 397 -49 397 -252 0 -125 194 78 -2574
-2690 -1392 -1392 -2530 -2534 -2530 -2538 0 -12 338 -174 491 -235 471 -190
948 -307 1489 -364 169 -18 812 -18 980 0 132 14 445 59 470 68 9 3 -211 230
-643 662 l-657 657 1896 1895 c1956 1955 1916 1916 1816 1750 -18 -31 -26 -38
113 100 133 131 201 227 243 344 32 88 56 213 50 261 -3 30 -4 30 -29 -19
l-26 -49 -6 119 c-10 230 -101 416 -273 558 -155 127 -385 193 -579 166z"/>
<path d="M386 6453 c-21 -118 -43 -289 -51 -393 l-7 -85 161 160 161 160 -122
122 c-68 68 -123 123 -124 123 -1 0 -9 -39 -18 -87z"/>
<path d="M8806 3221 c-1429 -1429 -1974 -1968 -2010 -1988 -44 -24 -62 -28
-131 -28 -92 0 -136 19 -197 82 -81 84 -102 206 -53 313 21 46 22 51 5 30 -37
-47 -90 -157 -105 -221 -26 -112 -14 -251 32 -358 l19 -45 -23 -20 -24 -21 35
-51 c50 -74 147 -157 231 -198 179 -89 377 -87 565 5 73 37 103 60 228 183
293 286 817 830 769 797 -26 -18 -52 -29 -58 -26 -5 4 -18 1 -27 -6 -36 -27
324 337 1415 1431 l1133 1135 29 125 c42 177 76 369 100 560 20 164 30 260 27
260 0 0 -883 -882 -1960 -1959z"/>
</g>
</svg>
