<?xml version="1.0" standalone="no"?>
<!DOCTYPE svg PUBLIC "-//W3C//DTD SVG 20010904//EN"
 "http://www.w3.org/TR/2001/REC-SVG-20010904/DTD/svg10.dtd">
<svg version="1.0" xmlns="http://www.w3.org/2000/svg"
 width="3575.000000pt" height="1293.000000pt" viewBox="0 0 3575.000000 1293.000000"
 preserveAspectRatio="xMidYMid meet">

<g transform="translate(0.000000,1293.000000) scale(0.100000,-0.100000)"
fill="#000000" stroke="none">
<path d="M5885 11284 c-143 -29 -249 -76 -342 -150 -69 -55 -256 -237 -285
-277 l-21 -29 43 22 c60 31 134 36 205 16 45 -14 69 -29 110 -70 80 -80 102
-172 69 -287 -15 -53 -55 -94 -2190 -2229 l-2175 -2176 11 -99 c44 -414 118
-762 236 -1113 165 -491 364 -899 637 -1307 334 -500 786 -966 1277 -1320 l93
-67 1295 1295 c713 713 1293 1299 1290 1302 -3 4 -16 1 -28 -5 -12 -6 -19 -14
-16 -17 3 -4 -4 -11 -15 -17 -12 -6 -21 -15 -20 -20 1 -5 -8 -14 -20 -20 -12
-6 -21 -15 -20 -20 1 -5 -8 -14 -20 -20 -12 -6 -21 -15 -20 -20 1 -5 -8 -14
-20 -20 -12 -6 -21 -15 -20 -20 1 -5 -8 -14 -21 -21 -13 -6 -22 -17 -20 -23 1
-7 -7 -12 -18 -12 -18 0 -25 -10 -21 -33 0 -4 -8 -7 -18 -7 -11 0 -23 -9 -26
-20 -3 -11 -10 -20 -15 -20 -5 0 -52 -43 -104 -96 -52 -53 -100 -93 -105 -89
-6 3 20 36 60 76 39 39 68 73 64 77 -4 4 -15 -3 -25 -15 -10 -13 -23 -23 -28
-23 -6 0 -14 -9 -17 -20 -3 -11 -12 -20 -18 -20 -14 0 -67 -57 -67 -71 0 -5 5
-9 10 -9 19 0 10 -32 -10 -37 -10 -3 -22 -14 -25 -24 -4 -10 -11 -19 -16 -19
-16 0 -10 19 17 45 14 14 22 30 19 36 -4 6 -22 -4 -44 -26 -33 -34 -36 -35
-39 -16 -2 12 -7 21 -11 21 -4 0 -6 -12 -3 -28 4 -30 -36 -78 -60 -69 -8 3 -3
8 13 15 24 10 37 42 16 42 -5 0 -7 9 -4 20 6 22 -8 37 -18 20 -11 -17 -25 -11
-25 11 0 14 5 19 14 16 10 -4 12 0 9 14 -5 18 4 24 34 20 7 -1 10 5 7 13 -3 9
3 17 16 21 16 5 19 10 11 18 -19 19 -12 27 27 28 20 1 30 3 21 6 -10 2 -19 13
-22 24 -4 16 -1 18 18 15 18 -3 22 -1 18 10 -4 11 -14 13 -34 9 -15 -4 -36 -2
-46 4 -10 6 -12 11 -5 11 17 0 15 38 -2 56 -8 8 -22 14 -31 14 -12 0 -16 8
-13 32 2 25 9 33 30 39 23 6 28 3 37 -19 7 -19 10 -22 11 -9 2 9 4 22 5 27 1
6 3 15 4 20 1 7 7 7 20 0 26 -13 31 -13 31 5 0 8 -7 15 -16 15 -11 0 -14 6 -9
21 4 12 8 47 8 79 2 55 3 58 19 43 26 -23 46 -11 21 13 -59 56 -85 68 -76 34
4 -14 0 -20 -11 -20 -9 0 -16 5 -16 10 0 6 -9 10 -20 10 -13 0 -20 7 -20 20 0
11 -4 20 -10 20 -5 0 -10 14 -10 31 0 17 4 28 10 24 6 -3 10 1 10 9 0 9 5 16
11 16 6 0 8 7 5 16 -5 14 -4 15 9 4 12 -10 15 -10 15 4 0 9 -8 16 -20 16 -11
0 -20 -5 -20 -12 0 -6 -3 -8 -7 -4 -4 4 -8 25 -8 47 0 31 4 39 18 39 15 0 22
-17 18 -43 0 -4 3 -7 8 -7 10 0 12 50 2 65 -3 6 -6 21 -6 34 0 13 -6 26 -13
28 -8 3 -10 -1 -5 -12 5 -15 3 -16 -15 -6 -29 16 -42 14 -35 -6 5 -13 2 -15
-11 -10 -10 4 -27 7 -38 7 -17 0 -18 2 -4 15 8 8 20 15 26 15 6 0 9 4 5 9 -6
11 34 43 45 36 4 -3 6 7 4 20 -1 14 3 28 8 32 7 3 8 1 4 -5 -4 -7 -1 -12 9
-12 9 0 14 4 10 9 -3 5 4 16 16 25 12 8 18 19 14 25 -3 6 1 11 9 11 9 0 13 6
10 14 -3 7 2 16 11 20 10 4 14 2 9 -6 -4 -7 -3 -8 4 -4 7 4 12 16 12 26 0 10
9 22 20 25 11 4 18 10 15 15 -7 12 22 33 36 24 7 -4 10 -2 7 7 -8 21 11 51 28
45 9 -3 12 -2 9 5 -7 10 14 33 208 232 126 130 439 455 486 505 22 24 43 53
47 64 27 88 77 138 2654 2720 652 654 1186 1194 1188 1201 6 29 -388 371 -631
547 l-88 63 -2582 -2580 c-1817 -1815 -2594 -2586 -2622 -2599 -23 -10 -71
-20 -111 -22 -90 -5 -156 21 -215 85 -55 60 -72 104 -73 189 0 58 4 80 27 123
15 29 24 58 20 63 -3 6 -2 8 4 5 5 -3 47 32 93 78 69 70 82 87 71 97 -11 11
-13 10 -9 -2 5 -16 -14 -40 -32 -40 -6 0 -8 -4 -5 -10 3 -5 -6 -12 -20 -16
-14 -3 -24 -11 -22 -18 5 -16 -21 -39 -35 -30 -8 5 -9 2 -5 -9 4 -11 1 -17 -9
-17 -9 0 -12 -5 -8 -12 6 -10 4 -10 -7 0 -15 14 -33 16 -25 3 7 -11 -54 -75
-62 -66 -4 3 6 16 21 29 19 16 24 26 15 28 -8 3 -1 11 17 21 17 9 26 16 20 17
-5 0 -3 5 5 10 11 7 12 12 4 20 -9 9 -16 6 -28 -11 l-16 -23 0 22 c0 25 -18
30 -26 7 -4 -8 -12 -15 -20 -15 -8 0 -14 -9 -14 -21 0 -11 4 -18 9 -14 5 3 12
1 16 -5 3 -5 -1 -10 -9 -10 -14 0 -29 -27 -25 -46 4 -22 -2 -34 -16 -34 -8 0
-15 -4 -15 -10 0 -5 -4 -10 -10 -10 -19 0 -10 22 11 27 20 6 21 10 15 74 -7
63 -6 68 14 71 11 2 22 8 23 13 2 12 -82 25 -89 14 -6 -11 -64 10 -64 23 0 6
7 7 16 4 8 -3 12 -2 9 4 -3 6 3 10 15 10 12 0 19 4 16 8 -3 5 4 15 15 22 10 8
19 18 19 22 0 12 -58 10 -65 -2 -3 -5 -14 -10 -25 -10 -13 0 -17 5 -13 20 3
11 9 20 14 20 5 0 9 7 9 15 0 8 5 15 10 15 14 0 12 27 -2 33 -20 8 24 38 47
32 20 -4 20 -4 1 10 -19 15 -19 15 2 15 15 0 22 6 22 20 0 11 -4 20 -10 20 -5
0 -10 5 -10 10 0 6 15 10 33 10 36 1 77 24 55 32 -16 6 -55 3 -88 -6 -22 -6
-26 -4 -27 15 -1 11 -10 30 -19 40 -16 18 -16 19 9 19 25 0 26 2 20 33 -3 17
-10 34 -15 35 -4 2 -16 11 -24 20 -15 14 -15 17 0 28 15 11 15 13 1 28 -9 9
-25 17 -36 17 -10 1 -25 2 -31 3 -7 0 -14 10 -16 21 -2 11 -10 27 -17 35 -21
25 -27 57 -12 63 10 4 13 -1 9 -18 -6 -33 16 -41 24 -8 3 15 7 33 9 40 2 6 -3
14 -11 17 -17 7 -15 47 2 53 7 2 10 -6 6 -24 -5 -26 -4 -27 13 -13 17 14 18
13 11 -5 -6 -16 -5 -17 5 -8 10 10 9 15 -1 28 -10 12 -10 15 1 15 10 1 8 5 -4
15 -18 13 -18 14 5 27 12 7 23 20 23 28 0 8 8 16 17 18 13 2 16 -1 12 -12 -3
-9 -2 -16 3 -16 5 0 9 9 10 19 1 15 -7 20 -43 26 -24 3 -42 11 -39 16 4 5 11
7 16 4 5 -3 6 0 4 8 -9 22 30 50 60 43 30 -8 34 1 5 12 -20 7 -19 10 16 45 20
20 41 34 47 30 6 -3 7 -1 3 5 -5 8 366 389 571 585 15 14 41 40 57 56 17 16
33 28 37 25 4 -2 10 7 13 21 4 14 11 25 16 25 13 0 35 24 212 226 67 76 711
714 1074 1062 71 68 197 191 280 273 83 82 157 149 164 149 7 0 11 3 8 6 -4 3
12 22 35 42 22 20 67 63 98 95 32 31 65 57 74 57 11 0 15 5 12 14 -3 8 2 16
14 19 10 3 19 12 19 21 0 9 11 18 25 22 14 3 25 9 25 13 0 3 27 34 59 69 32
35 65 76 71 93 7 16 16 29 21 29 5 0 9 7 9 15 0 9 7 26 15 39 46 69 90 270 73
332 -4 16 -8 55 -9 88 -1 32 -10 82 -21 110 -11 28 -22 60 -25 71 -17 67 -116
217 -189 286 -159 149 -337 220 -543 218 -58 -1 -115 -3 -126 -5z m-2215
-4235 c0 -5 4 -8 8 -5 5 3 9 -1 9 -9 0 -8 -5 -11 -11 -7 -6 3 -21 5 -33 3 -13
-1 -23 3 -23 9 0 7 8 9 21 5 15 -5 19 -4 15 4 -4 6 -2 11 3 11 6 0 11 -5 11
-11z m-35 -49 c-11 -5 -27 -9 -35 -9 -9 0 -8 4 5 9 11 5 27 9 35 9 9 0 8 -4
-5 -9z m-75 -40 c0 -5 -5 -10 -11 -10 -5 0 -7 5 -4 10 3 6 8 10 11 10 2 0 4
-4 4 -10z m100 -240 c0 -7 -24 -20 -36 -20 -2 0 -4 9 -4 19 0 14 5 18 20 14
11 -3 20 -9 20 -13z m40 -4 c0 -11 -19 -15 -25 -6 -3 5 1 10 9 10 9 0 16 -2
16 -4z m16 -51 c14 -13 14 -15 0 -15 -9 0 -16 -5 -16 -11 0 -5 5 -7 10 -4 6 3
10 2 10 -3 0 -13 -27 -23 -45 -16 -17 7 -20 24 -5 24 6 0 10 5 10 10 0 6 -9
10 -20 10 -11 0 -20 -7 -20 -15 0 -8 -4 -15 -10 -15 -5 0 -10 -11 -10 -25 0
-14 -4 -25 -10 -25 -5 0 -10 5 -10 11 0 6 -7 17 -15 25 -19 19 -19 34 0 34 9
0 12 6 9 15 -5 12 4 15 51 15 37 0 62 -5 71 -15z m14 -203 c-17 -2 -30 -7 -30
-13 0 -5 -11 -9 -25 -9 -16 0 -25 6 -25 15 0 8 5 15 11 15 6 0 17 6 25 14 12
13 18 13 44 -2 l30 -17 -30 -3z m-37 -39 c-7 -2 -21 -2 -30 0 -10 3 -4 5 12 5
17 0 24 -2 18 -5z m3 -80 c-10 -10 -19 5 -10 18 6 11 8 11 12 0 2 -7 1 -15 -2
-18z m94 -183 c-10 -6 -9 -12 4 -25 9 -10 14 -25 11 -33 -3 -8 0 -19 7 -25 9
-5 4 -7 -14 -3 -20 5 -28 2 -32 -12 -3 -9 -16 -23 -28 -31 l-23 -14 20 23 c11
12 19 25 17 29 -1 3 5 14 13 23 9 11 13 32 11 57 -4 45 3 60 17 35 6 -11 5
-19 -3 -24z m97 -26 c-3 -3 -12 -4 -19 -1 -8 3 -5 6 6 6 11 1 17 -2 13 -5z
m-82 -84 c-3 -5 -11 -10 -16 -10 -6 0 -7 5 -4 10 3 6 11 10 16 10 6 0 7 -4 4
-10z m5 -69 c0 -6 -4 -13 -10 -16 -5 -3 -10 -2 -10 4 0 5 -8 12 -17 14 -11 3
-7 5 10 6 15 0 27 -3 27 -8z m-30 -31 c0 -5 -10 -10 -22 -9 -22 0 -22 1 -3 9
11 5 21 9 23 9 1 1 2 -3 2 -9z m-53 -60 c-1 -11 -6 -20 -12 -20 -6 0 -11 9
-11 20 0 11 6 20 13 20 6 0 11 -9 10 -20z m-52 -60 c-3 -5 -16 -15 -28 -20
-20 -10 -20 -10 -5 3 10 8 15 17 11 20 -3 4 1 7 11 7 9 0 14 -4 11 -10z m1673
-712 c9 -9 7 -14 -6 -24 -20 -16 -46 -18 -37 -4 3 6 1 10 -4 10 -6 0 -11 7
-11 15 0 18 41 20 58 3z m35 -44 c4 -23 3 -24 -10 -11 -9 8 -12 20 -9 26 10
16 13 14 19 -15z m100 -311 c-7 -2 -19 -2 -25 0 -7 3 -2 5 12 5 14 0 19 -2 13
-5z m-17 -45 c0 -13 4 -31 8 -40 7 -15 3 -18 -17 -18 -34 0 -43 16 -14 24 l22
7 -22 11 c-13 6 -23 17 -23 25 0 7 10 13 23 13 16 0 22 -6 23 -22z m-4 -290
c-16 -32 -17 -32 -20 -9 -2 13 2 28 10 32 24 16 27 9 10 -23z m-122 -193 c0
-8 -4 -15 -10 -15 -5 0 -10 7 -10 15 0 8 5 15 10 15 6 0 10 -7 10 -15z m75
-12 c6 -18 -13 -35 -32 -28 -8 2 -13 -4 -13 -15 0 -11 -5 -20 -11 -20 -12 0
-3 37 15 59 9 12 8 13 -4 6 -13 -8 -13 -6 -2 7 15 19 37 14 47 -9z m85 -29 c0
-9 -9 -18 -20 -21 -10 -3 -22 -14 -25 -24 -7 -20 -25 -26 -25 -9 0 6 5 10 12
10 6 0 9 3 6 6 -6 6 32 51 45 53 4 1 7 -6 7 -15z m-120 -53 c0 -6 -4 -13 -10
-16 -5 -3 -10 1 -10 9 0 9 5 16 10 16 6 0 10 -4 10 -9z m-60 -11 c0 -5 -5 -10
-11 -10 -5 0 -7 5 -4 10 3 6 8 10 11 10 2 0 4 -4 4 -10z m94 -24 c-6 -15 -24
-23 -24 -11 0 8 24 34 28 30 1 -1 0 -10 -4 -19z m-34 -25 c0 -5 -7 -14 -15
-21 -10 -9 -15 -9 -15 -1 0 6 5 11 11 11 5 0 7 5 4 10 -3 6 -1 10 4 10 6 0 11
-4 11 -9z m-50 -56 c-7 -9 -15 -13 -17 -11 -6 6 20 36 26 30 2 -2 -2 -10 -9
-19z m-30 -29 c0 -2 -8 -10 -17 -17 -16 -13 -17 -12 -4 4 13 16 21 21 21 13z
m-50 -50 c0 -3 -4 -8 -10 -11 -5 -3 -10 -1 -10 4 0 6 5 11 10 11 6 0 10 -2 10
-4z m-30 -30 c0 -2 -8 -10 -17 -17 -16 -13 -17 -12 -4 4 13 16 21 21 21 13z"/>
<path d="M2227 9489 c-9 -5 -24 -24 -33 -42 -9 -18 -20 -34 -25 -37 -12 -8
-152 -236 -233 -380 -58 -103 -131 -249 -161 -320 -15 -36 -40 -92 -56 -126
-62 -131 -165 -418 -228 -634 -79 -273 -152 -658 -176 -925 -3 -38 -9 -83 -12
-100 -4 -24 62 39 340 319 191 192 344 353 341 358 -3 5 -11 5 -18 -1 -18 -15
-27 -2 -14 22 10 20 11 20 27 -2 l17 -23 37 36 c41 40 46 50 18 41 -10 -3 -25
-3 -34 1 -13 5 -10 11 16 32 51 42 57 56 31 66 -12 5 -15 2 -10 -9 4 -11 -3
-17 -24 -22 -17 -3 -27 -10 -24 -17 3 -6 -1 -3 -8 6 -10 11 -19 14 -29 7 -10
-6 -11 -9 -1 -9 10 0 10 -5 1 -21 -9 -18 -13 -19 -21 -8 -7 11 -11 11 -15 2
-2 -7 -9 -13 -14 -13 -5 0 -4 9 3 19 7 11 16 17 20 15 4 -3 8 1 8 10 0 8 -6
17 -12 20 -7 3 -3 3 10 0 20 -5 21 -3 12 20 -7 20 -6 27 8 35 14 9 11 10 -15
11 -18 0 -33 5 -33 10 0 6 -15 10 -34 10 -21 0 -36 6 -40 16 -8 22 -28 6 -21
-17 6 -17 1 -19 -34 -19 -23 0 -41 5 -41 10 0 6 7 10 15 10 8 0 15 5 15 10 0
6 -7 10 -15 10 -8 0 -15 5 -15 11 0 7 9 9 23 6 12 -4 29 -2 37 3 11 7 12 10 2
10 -10 0 -12 9 -7 32 7 30 7 31 -10 15 -9 -10 -14 -24 -11 -32 3 -9 0 -12 -10
-8 -8 3 -13 12 -10 20 3 8 6 19 6 24 0 6 6 7 13 3 6 -4 3 2 -8 13 -11 11 -23
16 -26 11 -7 -12 -41 1 -33 13 9 14 74 7 74 -8 0 -18 10 -16 25 4 11 15 18 15
49 6 20 -6 36 -8 36 -3 0 12 -27 20 -67 20 -27 0 -33 3 -25 13 6 6 8 24 5 40
-4 21 -11 27 -32 27 -25 1 -25 1 -7 15 10 8 23 12 27 9 5 -3 6 2 2 12 -5 13
-2 15 17 9 15 -5 20 -4 16 4 -4 6 -2 11 3 11 6 0 11 -4 11 -10 0 -5 4 -10 8
-10 4 0 8 8 8 18 0 21 -36 28 -48 9 -11 -17 -29 12 -22 35 2 9 0 19 -6 23 -17
11 -11 23 12 27 13 2 23 11 24 21 1 12 1 13 -3 2 -2 -8 -14 -15 -26 -14 -12 0
-16 3 -9 6 6 2 12 18 12 35 0 23 4 29 16 24 8 -3 12 -2 9 4 -3 6 -16 10 -28
11 -20 1 -20 2 3 8 19 5 25 14 25 37 0 16 -3 36 -7 46 -6 13 -3 15 15 11 19
-4 20 -3 5 7 -10 6 -18 16 -18 23 0 9 2 9 8 0 5 -8 13 -6 29 7 21 17 21 18 4
23 -18 4 -22 41 -6 66 3 6 1 11 -4 11 -6 0 -11 9 -11 21 0 12 4 17 11 14 6 -4
13 2 16 14 3 12 9 21 15 21 5 0 4 9 -2 20 -6 11 -15 18 -20 15 -21 -13 -54
-14 -62 -2 -13 20 -9 30 6 18 11 -9 20 -9 35 -2 14 8 22 8 26 0 4 -6 13 -8 21
-5 8 3 14 0 14 -6 0 -6 2 -9 5 -6 12 12 -9 38 -31 38 -13 0 -24 5 -24 11 0 6
7 9 15 5 8 -3 25 -2 37 3 l23 8 -23 7 c-12 4 -25 5 -29 3 -5 -3 -21 1 -38 9
-29 14 -29 14 -3 9 36 -7 58 3 58 26 0 19 11 25 23 12 4 -3 2 -12 -5 -20 -6
-7 -8 -16 -6 -19 3 -3 16 9 28 25 22 32 19 35 -26 32 -11 -1 -27 6 -35 15 -9
12 -10 15 -1 10 7 -4 12 -1 12 8 0 9 5 16 11 16 6 0 9 7 6 14 -4 10 -1 13 9 9
18 -7 18 -19 -1 -27 -8 -3 -15 -13 -15 -23 0 -13 3 -14 12 -5 7 7 23 12 36 12
21 0 22 1 8 16 -21 21 -20 26 6 22 11 -2 23 3 26 10 3 9 -4 12 -19 11 -41 -4
-57 0 -63 16 -5 13 -2 14 15 5 24 -13 70 -3 48 11 -8 4 -19 3 -28 -4 -12 -10
-14 -9 -8 6 4 10 7 23 7 29 0 6 7 8 15 4 13 -4 14 -2 5 14 -8 14 -8 20 0 20 6
0 8 5 5 10 -3 6 2 10 12 11 10 0 13 3 6 6 -8 3 -5 12 11 26 27 26 40 57 24 57
-6 0 -4 8 5 18 10 10 17 25 17 33 0 12 2 11 10 -1 8 -13 10 -13 11 3 3 35 4
39 20 50 18 14 33 46 30 65 -1 7 8 16 21 22 13 5 17 9 9 9 -11 1 -8 7 7 22 12
11 27 17 32 14 6 -4 7 2 1 18 -8 19 -6 29 8 41 10 9 23 16 29 16 7 0 12 5 12
11 0 5 -5 7 -12 3 -8 -5 -9 -2 -5 10 4 10 7 20 7 22 0 3 5 2 10 -1 6 -3 10 -1
10 5 0 6 5 8 10 5 6 -3 10 1 10 9 0 19 0 18 -23 5z m-357 -694 c10 -12 10 -15
-4 -15 -9 0 -16 7 -16 15 0 8 2 15 4 15 2 0 9 -7 16 -15z m-40 -80 c0 -8 -4
-15 -8 -15 -5 0 -9 7 -9 15 0 8 4 15 9 15 4 0 8 -7 8 -15z m-44 -92 c-10 -10
-19 5 -10 18 6 11 8 11 12 0 2 -7 1 -15 -2 -18z m31 -39 c-9 -10 -56 -9 -56 1
-1 6 8 10 19 10 10 0 22 4 27 8 4 5 9 3 11 -3 2 -6 2 -13 -1 -16z m-70 -36
c-3 -8 -6 -5 -6 6 -1 11 2 17 5 13 3 -3 4 -12 1 -19z m43 2 c0 -5 -4 -10 -10
-10 -5 0 -10 5 -10 10 0 6 5 10 10 10 6 0 10 -4 10 -10z m-59 -58 c-6 -2 -8
-8 -5 -14 4 -6 1 -9 -7 -6 -16 6 -13 39 4 50 7 4 14 0 16 -9 2 -10 -2 -19 -8
-21z m-24 -64 c-3 -7 -5 -2 -5 12 0 14 2 19 5 13 2 -7 2 -19 0 -25z m108 -28
c3 -6 -1 -7 -9 -4 -18 7 -21 14 -7 14 6 0 13 -4 16 -10z m-75 -4 c0 -3 -4 -8
-10 -11 -5 -3 -10 -1 -10 4 0 6 5 11 10 11 6 0 10 -2 10 -4z m-73 -48 c-3 -8
-6 -5 -6 6 -1 11 2 17 5 13 3 -3 4 -12 1 -19z m80 -170 c-3 -8 -6 -5 -6 6 -1
11 2 17 5 13 3 -3 4 -12 1 -19z m33 -12 c0 -2 -7 -7 -16 -10 -8 -3 -12 -2 -9
4 6 10 25 14 25 6z m-13 -127 c-14 -8 -16 -14 -6 -25 9 -12 6 -14 -19 -14 -25
0 -29 3 -25 19 5 19 21 28 53 30 11 0 10 -2 -3 -10z m143 -236 c0 -29 -14 -43
-30 -33 -12 8 -12 10 4 10 18 0 18 1 1 20 -18 19 -17 20 3 20 14 0 22 -6 22
-17z m40 -27 c0 -2 -9 -6 -20 -9 -11 -3 -18 -1 -14 4 5 9 34 13 34 5z m-43
-44 c9 -6 7 -11 -7 -20 -12 -7 -20 -8 -20 -2 0 5 6 10 13 11 6 0 3 4 -8 9 -13
6 -15 9 -5 9 8 0 20 -3 27 -7z m18 -61 c3 -5 0 -13 -6 -17 -7 -4 -9 -3 -5 4 3
5 0 13 -6 15 -9 4 -10 6 -1 6 6 1 14 -3 18 -8z m95 -10 c0 -12 -26 -32 -33
-25 -9 10 4 34 19 34 8 0 14 -4 14 -9z m-80 -77 c0 -10 -27 -33 -33 -28 -9 10
4 34 19 34 8 0 14 -3 14 -6z m-40 -40 c0 -13 -29 -34 -35 -24 -3 5 -1 10 5 10
6 0 8 5 5 10 -3 6 1 10 9 10 9 0 16 -3 16 -6z m-40 -45 c0 -5 -4 -7 -10 -4 -5
3 -10 -1 -10 -10 0 -9 -4 -14 -10 -10 -13 8 -1 35 16 35 8 0 14 -5 14 -11z
m-52 -48 c-7 -11 -17 -17 -22 -14 -6 4 -5 8 2 11 7 2 10 8 6 13 -3 5 2 9 10 9
13 0 14 -3 4 -19z m-31 -27 c-3 -3 -12 -4 -19 -1 -8 3 -5 6 6 6 11 1 17 -2 13
-5z m-252 -253 c-3 -6 -11 -11 -16 -11 -5 0 -4 6 3 14 14 16 24 13 13 -3z"/>
<path d="M1996 9025 c4 -8 8 -15 10 -15 2 0 4 7 4 15 0 8 -4 15 -10 15 -5 0
-7 -7 -4 -15z"/>
<path d="M2028 9003 c6 -2 18 -2 25 0 6 3 1 5 -13 5 -14 0 -19 -2 -12 -5z"/>
<path d="M1997 8974 c-11 -11 3 -24 18 -18 8 4 12 10 9 15 -6 11 -18 12 -27 3z"/>
<path d="M2670 8290 c0 -5 5 -10 11 -10 5 0 7 5 4 10 -3 6 -8 10 -11 10 -2 0
-4 -4 -4 -10z"/>
<path d="M2630 8250 c0 -5 5 -10 11 -10 5 0 7 5 4 10 -3 6 -8 10 -11 10 -2 0
-4 -4 -4 -10z"/>
<path d="M2590 8210 c0 -5 5 -10 11 -10 5 0 7 5 4 10 -3 6 -8 10 -11 10 -2 0
-4 -4 -4 -10z"/>
<path d="M2550 8170 c0 -5 5 -10 11 -10 5 0 7 5 4 10 -3 6 -8 10 -11 10 -2 0
-4 -4 -4 -10z"/>
<path d="M2510 8130 c0 -5 5 -10 11 -10 5 0 7 5 4 10 -3 6 -8 10 -11 10 -2 0
-4 -4 -4 -10z"/>
<path d="M2011 8105 l-23 -25 26 0 c21 0 26 5 26 25 0 30 1 30 -29 0z"/>
<path d="M2470 8090 c0 -5 5 -10 11 -10 5 0 7 5 4 10 -3 6 -8 10 -11 10 -2 0
-4 -4 -4 -10z"/>
<path d="M2430 8055 c0 -8 4 -15 10 -15 5 0 7 7 4 15 -4 8 -8 15 -10 15 -2 0
-4 -7 -4 -15z"/>
<path d="M2402 8028 c-15 -15 -15 -28 -1 -28 5 0 8 4 5 9 -4 5 0 11 6 14 7 2
10 7 7 10 -3 4 -11 1 -17 -5z"/>
<path d="M2295 7989 c-4 -6 -5 -12 -2 -15 2 -3 7 2 10 11 7 17 1 20 -8 4z"/>
<path d="M2370 7992 c0 -7 -3 -11 -7 -9 -5 1 -9 -2 -11 -8 -2 -5 1 -11 6 -13
11 -3 26 28 17 36 -3 3 -5 0 -5 -6z"/>
<path d="M2253 7963 c-15 -5 -17 -23 -4 -23 5 0 11 7 15 15 3 8 4 15 3 14 -1
0 -8 -3 -14 -6z"/>
<path d="M2323 7953 c-7 -2 -13 -9 -13 -15 0 -16 -24 -35 -39 -30 -10 3 -12 0
-8 -12 4 -11 -1 -18 -18 -22 -14 -3 -22 -11 -19 -19 6 -15 -30 -30 -47 -19 -8
5 -8 1 0 -15 10 -18 8 -21 -14 -27 -26 -6 -32 -18 -15 -29 10 -6 190 171 190
186 0 5 -1 9 -2 8 -2 0 -9 -3 -15 -6z"/>
<path d="M2212 7925 c4 -4 3 -16 -3 -26 -5 -11 -7 -19 -5 -19 3 0 10 9 16 19
7 15 7 22 -2 27 -7 4 -10 4 -6 -1z"/>
<path d="M1920 7914 c0 -4 8 -13 18 -20 16 -13 16 -13 0 -14 -25 0 -23 -20 1
-20 13 0 21 8 23 23 2 12 9 21 16 20 6 -2 12 2 12 7 0 6 -16 10 -35 10 -19 0
-35 -3 -35 -6z"/>
<path d="M2165 7880 c-3 -5 -3 -15 1 -21 6 -11 23 6 24 24 0 10 -18 9 -25 -3z"/>
<path d="M2101 7844 c0 -11 3 -14 6 -6 3 7 2 16 -1 19 -3 4 -6 -2 -5 -13z"/>
<path d="M2131 7843 c4 -22 -3 -33 -20 -33 -23 0 -37 -18 -24 -31 10 -10 76
48 68 62 -7 11 -26 12 -24 2z"/>
<path d="M1975 7833 c11 -3 26 -10 34 -17 11 -9 13 -8 9 4 -2 8 -18 16 -34 17
-18 1 -22 0 -9 -4z"/>
<path d="M9395 7814 c-11 -2 -45 -9 -75 -15 -149 -28 -264 -97 -436 -262 -74
-71 -143 -141 -154 -157 l-19 -27 42 21 c61 30 171 34 229 8 106 -47 171 -144
171 -257 0 -127 200 83 -2573 -2690 -1392 -1392 -2530 -2534 -2530 -2538 0
-13 370 -189 525 -250 258 -102 556 -193 828 -252 126 -28 379 -71 462 -79 28
-3 88 -10 135 -15 103 -13 376 -26 520 -26 198 0 573 23 648 40 12 3 44 8 70
10 26 3 59 8 74 11 15 3 39 7 55 9 15 2 39 7 53 10 35 8 79 16 123 21 21 3 65
14 99 25 33 10 71 19 83 19 12 0 48 9 81 20 32 11 66 20 75 20 16 0 137 35
174 50 11 4 40 14 65 21 25 7 49 16 54 21 6 4 17 8 27 8 16 0 106 32 141 51
10 5 25 9 33 9 14 0 53 18 65 30 3 3 10 5 15 5 20 1 95 28 95 35 0 4 7 7 14 7
8 0 34 9 58 20 24 12 63 30 88 41 68 30 311 151 347 173 17 11 54 32 82 47 50
26 64 43 42 50 -6 2 -11 -4 -11 -13 0 -9 -4 -14 -9 -11 -13 9 -42 -4 -35 -16
3 -5 0 -8 -7 -7 -22 5 -81 -30 -73 -43 4 -6 3 -8 -3 -5 -6 4 -68 -22 -138 -58
-70 -36 -130 -63 -135 -60 -4 3 -11 -2 -14 -11 -5 -13 -9 -14 -21 -4 -10 9
-15 9 -15 1 0 -6 -7 -11 -15 -11 -8 0 -15 -4 -15 -9 0 -14 -38 -20 -44 -7 -2
6 -5 3 -5 -6 -1 -10 -8 -18 -16 -18 -8 0 -15 -5 -15 -11 0 -7 -10 -9 -26 -5
-23 6 -26 4 -22 -12 4 -15 1 -18 -17 -14 -13 2 -26 -1 -29 -7 -5 -8 -12 -6
-22 4 -25 24 -54 19 -54 -10 0 -16 -6 -25 -15 -25 -8 0 -15 -4 -15 -10 0 -5
-4 -10 -10 -10 -6 0 -6 9 1 26 12 33 8 38 -17 18 -10 -8 -13 -13 -6 -9 7 4 12
0 12 -9 0 -9 -7 -16 -15 -16 -8 0 -15 -7 -15 -16 0 -11 -6 -15 -20 -11 -11 3
-23 1 -26 -4 -3 -5 -13 -5 -25 1 -15 8 -19 7 -19 -4 0 -9 -6 -13 -14 -10 -7 3
-16 -1 -19 -9 -3 -8 -21 -14 -41 -15 -35 -1 -49 11 -23 21 7 3 4 6 -7 6 -14 1
-17 -4 -12 -24 5 -20 3 -23 -10 -18 -10 4 -22 -1 -30 -11 -7 -10 -18 -15 -23
-11 -6 3 -14 -1 -17 -9 -5 -14 -8 -14 -22 0 -13 13 -13 17 -1 25 8 5 20 9 28
9 8 0 12 3 8 6 -3 4 -37 -3 -74 -14 -38 -12 -79 -19 -92 -15 -17 4 -22 3 -17
-5 4 -7 1 -12 -8 -12 -9 0 -16 6 -16 14 0 8 23 18 63 27 34 7 64 14 67 15 8 1
56 22 105 44 25 11 45 24 45 29 0 4 18 16 40 26 22 10 40 22 40 26 0 5 11 11
25 15 14 3 25 11 25 16 0 13 56 68 69 68 6 0 11 7 11 15 0 8 7 15 15 15 8 0
15 5 15 11 0 6 60 73 134 148 358 363 480 488 588 602 64 68 135 143 157 166
23 22 41 47 41 53 0 7 7 10 17 6 10 -4 14 -4 11 -1 -4 4 6 20 20 37 15 16 26
32 24 36 -2 3 9 11 25 18 15 7 22 13 16 13 -25 2 -13 20 17 26 24 5 28 10 20
20 -8 9 -6 15 7 20 10 5 21 8 25 7 4 -1 5 5 1 14 -4 10 2 17 16 21 11 3 21 9
21 13 0 17 45 79 58 80 6 0 12 6 12 14 0 8 6 21 13 28 7 7 18 20 23 30 5 9
443 453 974 988 531 534 968 977 971 983 10 19 65 269 88 397 23 131 47 305
56 400 3 36 8 83 11 105 5 38 -89 -55 -1963 -1927 -1622 -1621 -1976 -1971
-2016 -1988 -108 -48 -217 -33 -301 41 -72 63 -91 107 -91 209 0 112 18 146
148 278 66 66 93 100 77 94 -14 -5 -23 -13 -20 -16 3 -4 -5 -13 -17 -19 -12
-7 -22 -16 -22 -21 0 -5 -10 -14 -23 -21 -13 -6 -22 -17 -21 -23 2 -7 -4 -12
-12 -12 -9 0 -31 -16 -51 -35 -19 -19 -37 -35 -39 -35 -15 0 1 25 40 64 49 50
53 56 30 56 -8 0 -15 -7 -15 -15 0 -9 -12 -20 -26 -25 -35 -14 -36 -13 -29 10
5 15 3 18 -9 14 -9 -3 -16 -10 -16 -14 0 -4 -9 -10 -20 -13 -11 -3 -20 -1 -20
4 0 5 4 9 10 9 5 0 7 6 4 13 -3 8 5 19 18 26 13 6 15 9 5 6 -29 -8 -65 5 -70
26 -3 12 -11 17 -21 13 -10 -4 -14 0 -13 14 0 12 5 18 9 16 4 -3 8 4 8 14 0
15 -5 19 -19 15 -16 -4 -19 2 -23 36 -2 23 0 41 4 41 3 0 3 14 -2 30 -7 23 -5
30 6 30 8 0 14 9 14 20 0 11 4 20 9 20 5 0 11 14 15 30 4 22 11 30 26 30 12 0
19 4 16 9 -9 13 -46 1 -46 -15 0 -8 -4 -14 -10 -14 -5 0 -10 6 -10 14 0 8 -13
16 -30 18 -16 3 -30 1 -30 -4 0 -4 9 -8 20 -8 24 0 25 -6 5 -26 -14 -14 -20
-11 -16 10 1 5 -5 6 -14 3 -11 -5 -15 0 -15 18 0 14 7 25 18 28 13 4 12 5 -5
6 -41 2 -52 61 -12 61 11 0 17 5 14 10 -3 5 -15 10 -26 10 -31 0 -22 17 14 25
17 4 36 7 41 6 5 -1 3 5 -4 14 -11 13 -10 18 6 30 10 8 13 15 7 15 -9 0 -10 7
-3 26 12 32 13 44 1 44 -5 0 -11 -10 -13 -22 -2 -14 -10 -23 -20 -23 -9 0 -20
-4 -24 -8 -11 -10 -24 -9 -24 4 0 5 5 7 10 4 6 -3 13 1 16 9 3 9 12 16 20 16
8 0 14 5 14 11 0 5 -4 8 -9 5 -16 -10 -18 18 -3 41 8 13 10 23 4 23 -5 0 -12
-7 -16 -15 -3 -8 -11 -15 -17 -15 -8 0 -9 4 0 13 8 10 7 19 -4 33 -13 18 -14
18 -15 1 0 -10 -5 -15 -10 -12 -12 8 29 64 47 64 15 1 25 33 18 54 -4 8 -2 18
4 22 7 4 8 0 5 -10 -4 -10 -2 -15 7 -13 21 5 42 40 22 37 -20 -3 -23 2 -9 16
19 20 34 19 38 -2 3 -15 5 -14 10 5 4 16 2 22 -9 22 -12 0 -11 5 6 19 14 12
18 20 10 23 -8 3 -10 11 -6 22 6 16 10 16 24 5 15 -12 16 -12 10 4 -7 20 15
46 185 218 48 49 86 89 83 89 -3 0 3 8 13 18 9 11 20 17 23 15 7 -3 23 27 21
39 -1 4 5 5 14 1 8 -3 14 -2 12 3 -1 5 28 40 65 78 48 50 64 72 55 78 -9 5 -6
8 8 8 24 0 48 23 36 35 -4 5 -2 5 4 2 6 -4 19 2 28 12 13 15 14 20 4 24 -8 3
-5 6 7 6 11 1 27 6 35 11 13 9 13 11 0 21 -13 9 -12 10 2 5 24 -7 94 63 76 77
-10 6 -8 7 4 4 9 -3 24 3 34 14 13 15 14 19 3 19 -8 1 1 7 19 15 17 8 32 17
32 20 0 3 -5 3 -11 -1 -7 -4 -10 -1 -7 7 3 8 11 14 18 14 7 0 16 7 19 15 28
68 126 181 353 408 140 138 260 252 266 252 7 0 11 5 10 11 -2 6 6 16 16 22
25 16 76 68 76 78 0 5 6 9 14 9 8 0 18 9 21 20 3 11 12 20 20 20 7 0 16 7 19
16 3 8 10 12 16 9 6 -3 14 4 19 17 4 13 12 21 17 19 5 -2 15 7 21 20 7 13 13
20 13 15 0 -5 9 -1 20 9 11 10 17 22 13 28 -3 5 -1 7 4 4 6 -4 41 22 79 58 37
36 71 65 76 65 4 0 8 6 8 14 0 8 9 18 20 21 11 3 20 13 20 21 0 8 4 14 9 14 5
0 36 26 68 57 32 32 61 57 66 55 4 -1 7 2 7 8 0 12 142 156 152 153 4 -2 10 6
13 17 4 11 12 20 20 20 8 0 17 9 20 20 3 11 10 20 15 20 5 0 46 37 92 83 47
45 156 152 244 237 187 181 218 217 274 324 66 125 83 198 84 356 1 88 -4 154
-14 190 -8 30 -13 58 -12 62 1 3 -5 12 -13 18 -8 7 -15 19 -15 28 0 20 -41
102 -52 102 -4 0 -8 7 -8 15 0 8 -4 15 -9 15 -5 0 -12 11 -15 25 -4 14 -13 25
-20 25 -8 0 -16 7 -20 15 -3 8 -10 15 -16 15 -5 0 -27 17 -48 39 -88 91 -230
172 -361 206 -63 16 -246 29 -286 19z m-2288 -4434 c-1 -11 -7 -20 -14 -20
-16 0 -16 7 0 25 16 19 16 18 14 -5z m104 -433 c-10 -9 -11 -8 -5 6 3 10 9 15
12 12 3 -3 0 -11 -7 -18z m89 -211 c0 -3 -4 -8 -10 -11 -5 -3 -10 -1 -10 4 0
6 5 11 10 11 6 0 10 -2 10 -4z m1170 -1046 c-6 -11 -13 -20 -15 -20 -3 0 -5 9
-5 20 0 11 7 20 15 20 13 0 14 -4 5 -20z m-440 -140 c0 -5 -8 -10 -17 -10 -15
0 -16 2 -3 10 19 12 20 12 20 0z m-210 -19 c0 -5 12 -14 28 -20 22 -9 23 -10
2 -5 -14 4 -42 7 -62 7 -43 -1 -48 4 -15 17 29 12 47 12 47 1z m140 0 c0 -15
-17 -22 -36 -14 -16 6 -16 7 2 14 27 11 34 10 34 0z m35 -1 c3 -5 -1 -10 -9
-10 -9 0 -16 5 -16 10 0 6 4 10 9 10 6 0 13 -4 16 -10z m-162 -47 c-7 -2 -21
-2 -30 0 -10 3 -4 5 12 5 17 0 24 -2 18 -5z m-193 -33 c0 -5 -5 -10 -11 -10
-5 0 -7 5 -4 10 3 6 8 10 11 10 2 0 4 -4 4 -10z m40 0 c0 -5 -8 -10 -17 -10
-15 0 -16 2 -3 10 19 12 20 12 20 0z"/>
<path d="M1972 7778 c2 -6 10 -13 16 -14 7 -1 8 0 2 3 -5 2 -8 9 -4 14 3 5 0
9 -6 9 -7 0 -10 -5 -8 -12z"/>
<path d="M2016 7772 c-3 -6 -1 -14 5 -17 14 -9 20 -2 10 14 -6 8 -11 9 -15 3z"/>
<path d="M2101 7738 c7 -13 4 -18 -11 -23 -11 -3 -25 -3 -31 1 -8 4 -8 0 0
-15 7 -11 13 -21 15 -21 5 0 76 69 76 73 0 2 -13 4 -29 3 -24 -1 -27 -4 -20
-18z"/>
<path d="M3725 7110 c-23 -3 -35 -8 -28 -13 6 -4 18 -4 27 -1 9 3 16 1 16 -5
0 -6 -5 -11 -12 -11 -6 0 -9 -2 -6 -6 3 -3 20 1 38 8 43 18 21 36 -35 28z"/>
<path d="M3780 6968 c0 -9 5 -20 10 -23 13 -8 13 5 0 25 -8 13 -10 13 -10 -2z"/>
<path d="M3680 6830 c0 -5 12 -10 26 -10 14 0 23 4 19 10 -3 6 -15 10 -26 10
-10 0 -19 -4 -19 -10z"/>
<path d="M3785 6590 c-3 -6 2 -13 12 -17 10 -3 21 -8 26 -10 4 -2 7 5 7 16 0
22 -33 30 -45 11z"/>
<path d="M4380 6520 c-8 -5 -12 -12 -9 -15 4 -3 12 1 19 10 14 17 11 19 -10 5z"/>
<path d="M4341 6483 c-7 -8 -11 -16 -8 -19 2 -2 10 2 17 11 17 20 9 27 -9 8z"/>
<path d="M4300 6440 c-8 -5 -12 -12 -9 -15 4 -3 12 1 19 10 14 17 11 19 -10 5z"/>
<path d="M4220 6360 c-8 -5 -12 -12 -9 -15 4 -3 12 1 19 10 14 17 11 19 -10 5z"/>
<path d="M3736 6333 c-3 -3 -3 -10 0 -14 7 -12 34 -11 34 0 0 11 -26 22 -34
14z"/>
<path d="M4141 6283 c-7 -8 -11 -16 -8 -19 2 -2 10 2 17 11 17 20 9 27 -9 8z"/>
<path d="M3936 6205 c4 -8 8 -15 10 -15 2 0 4 7 4 15 0 8 -4 15 -10 15 -5 0
-7 -7 -4 -15z"/>
<path d="M3963 6190 c-1 -11 2 -20 6 -20 5 0 11 9 14 20 3 12 0 20 -7 20 -6 0
-12 -9 -13 -20z"/>
<path d="M5570 5290 c0 -5 5 -10 11 -10 5 0 7 5 4 10 -3 6 -8 10 -11 10 -2 0
-4 -4 -4 -10z"/>
<path d="M5546 5245 c-6 -17 2 -45 13 -45 4 0 6 14 3 30 -5 34 -7 36 -16 15z"/>
<path d="M5469 5237 c-8 -11 -6 -97 3 -97 6 0 9 16 6 40 -2 25 0 39 7 36 5 -2
9 -9 7 -16 -2 -7 -1 -19 2 -27 8 -20 45 5 39 27 -3 12 -58 44 -64 37z"/>
<path d="M5440 5201 c0 -5 5 -13 10 -16 6 -3 10 -2 10 4 0 5 -4 13 -10 16 -5
3 -10 2 -10 -4z"/>
<path d="M6505 5170 c3 -5 8 -10 11 -10 2 0 4 5 4 10 0 6 -5 10 -11 10 -5 0
-7 -4 -4 -10z"/>
<path d="M6465 5130 c3 -5 8 -10 11 -10 2 0 4 5 4 10 0 6 -5 10 -11 10 -5 0
-7 -4 -4 -10z"/>
<path d="M6420 5101 c0 -5 5 -13 10 -16 6 -3 10 -2 10 4 0 5 -4 13 -10 16 -5
3 -10 2 -10 -4z"/>
<path d="M5496 5051 c-4 -7 -5 -15 -2 -18 9 -9 19 4 14 18 -4 11 -6 11 -12 0z"/>
<path d="M6385 5050 c3 -5 8 -10 11 -10 2 0 4 5 4 10 0 6 -5 10 -11 10 -5 0
-7 -4 -4 -10z"/>
<path d="M6340 5021 c0 -5 5 -13 10 -16 6 -3 10 -2 10 4 0 5 -4 13 -10 16 -5
3 -10 2 -10 -4z"/>
<path d="M5520 4990 c0 -5 7 -10 16 -10 8 0 12 5 9 10 -3 6 -10 10 -16 10 -5
0 -9 -4 -9 -10z"/>
<path d="M5567 4984 c3 -7 11 -10 19 -7 20 8 17 22 -5 20 -10 0 -17 -7 -14
-13z"/>
<path d="M6300 4978 c0 -14 15 -16 27 -3 10 11 9 13 -7 12 -11 -1 -20 -5 -20
-9z"/>
<path d="M5565 4950 c3 -5 8 -10 11 -10 2 0 4 5 4 10 0 6 -5 10 -11 10 -5 0
-7 -4 -4 -10z"/>
<path d="M6255 4927 c-6 -12 -16 -23 -22 -23 -25 -3 -27 -4 -16 -15 9 -9 18
-4 38 16 16 15 24 30 18 36 -5 5 -12 -1 -18 -14z"/>
<path d="M5456 4923 c-11 -11 -6 -23 9 -23 8 0 15 4 15 9 0 13 -16 22 -24 14z"/>
<path d="M5490 4910 c0 -5 5 -10 10 -10 6 0 10 5 10 10 0 6 -4 10 -10 10 -5 0
-10 -4 -10 -10z"/>
<path d="M5600 4916 c0 -2 9 -6 20 -9 11 -3 20 -1 20 4 0 5 -9 9 -20 9 -11 0
-20 -2 -20 -4z"/>
<path d="M6200 4870 c0 -5 5 -10 10 -10 6 0 10 5 10 10 0 6 -4 10 -10 10 -5 0
-10 -4 -10 -10z"/>
<path d="M6176 4862 c-3 -6 -1 -14 5 -17 15 -10 25 3 12 16 -7 7 -13 7 -17 1z"/>
<path d="M6145 4827 c-13 -10 -15 -16 -6 -21 12 -8 41 10 41 25 0 13 -13 11
-35 -4z"/>
<path d="M5580 4770 c0 -5 7 -10 15 -10 8 0 15 5 15 10 0 6 -7 10 -15 10 -8 0
-15 -4 -15 -10z"/>
<path d="M5423 4604 c-3 -8 -1 -20 6 -27 8 -8 11 -4 11 16 0 30 -7 35 -17 11z"/>
<path d="M5860 4599 c0 -5 5 -7 10 -4 6 3 10 8 10 11 0 2 -4 4 -10 4 -5 0 -10
-5 -10 -11z"/>
<path d="M5518 4573 c7 -3 16 -2 19 1 4 3 -2 6 -13 5 -11 0 -14 -3 -6 -6z"/>
<path d="M5815 4560 c-3 -5 1 -10 9 -10 9 0 16 5 16 10 0 6 -4 10 -9 10 -6 0
-13 -4 -16 -10z"/>
<path d="M5480 4551 c0 -6 6 -11 14 -11 8 0 23 -3 33 -6 12 -5 15 -4 8 3 -15
16 -55 26 -55 14z"/>
<path d="M5777 4523 c-4 -3 -7 -13 -7 -20 0 -12 3 -12 15 1 8 8 15 17 15 20 0
8 -15 7 -23 -1z"/>
<path d="M5480 4510 c0 -5 14 -10 30 -10 17 0 30 5 30 10 0 6 -13 10 -30 10
-16 0 -30 -4 -30 -10z"/>
<path d="M5730 4469 c0 -18 2 -19 15 -5 8 8 15 17 15 20 0 3 -7 6 -15 6 -9 0
-15 -9 -15 -21z"/>
<path d="M5486 4337 c3 -10 9 -15 12 -12 3 3 0 11 -7 18 -10 9 -11 8 -5 -6z"/>
<path d="M5494 4291 c0 -11 4 -17 8 -15 4 3 8 12 8 20 0 8 -4 14 -8 14 -4 0
-8 -9 -8 -19z"/>
<path d="M7336 3722 c-3 -5 1 -9 9 -9 8 0 15 4 15 9 0 4 -4 8 -9 8 -6 0 -12
-4 -15 -8z"/>
<path d="M7307 3583 c-11 -10 -8 -25 3 -18 6 3 10 -1 10 -9 0 -9 7 -16 15 -16
19 0 19 14 -1 34 -18 18 -18 18 -27 9z"/>
<path d="M7275 3560 c4 -7 2 -15 -5 -20 -8 -5 -7 -9 4 -13 19 -8 23 28 4 39
-7 5 -8 3 -3 -6z"/>
<path d="M7224 3505 c-3 -14 -10 -23 -14 -20 -5 3 -13 -2 -18 -11 -8 -14 -3
-21 26 -36 46 -23 49 -23 27 2 -18 20 -17 20 18 20 43 0 46 12 12 45 -31 32
-43 31 -51 0z m43 -17 c-3 -8 -6 -5 -6 6 -1 11 2 17 5 13 3 -3 4 -12 1 -19z
m-17 -2 c0 -3 -4 -8 -10 -11 -5 -3 -10 -1 -10 4 0 6 5 11 10 11 6 0 10 -2 10
-4z"/>
<path d="M7307 3510 c3 -11 7 -20 9 -20 2 0 4 9 4 20 0 11 -4 20 -9 20 -5 0
-7 -9 -4 -20z"/>
<path d="M7300 3430 c0 -5 5 -10 11 -10 5 0 7 5 4 10 -3 6 -8 10 -11 10 -2 0
-4 -4 -4 -10z"/>
<path d="M7261 3364 c0 -11 3 -14 6 -6 3 7 2 16 -1 19 -3 4 -6 -2 -5 -13z"/>
<path d="M7380 3350 c0 -5 5 -10 10 -10 6 0 10 5 10 10 0 6 -4 10 -10 10 -5 0
-10 -4 -10 -10z"/>
<path d="M7296 3253 c0 -15 6 -29 12 -31 7 -2 12 -9 12 -16 0 -6 10 -12 21
-13 12 -1 31 -10 43 -20 l21 -18 -19 23 c-11 12 -23 22 -28 22 -18 0 -38 29
-38 54 0 15 -6 26 -13 26 -7 0 -12 -11 -11 -27z"/>
<path d="M7240 3255 c0 -8 4 -15 8 -15 5 0 9 7 9 15 0 8 -4 15 -9 15 -4 0 -8
-7 -8 -15z"/>
<path d="M7215 3171 c-3 -6 3 -15 14 -21 24 -12 42 7 20 21 -18 11 -26 11 -34
0z"/>
<path d="M7320 3160 c0 -5 5 -10 10 -10 6 0 10 5 10 10 0 6 -4 10 -10 10 -5 0
-10 -4 -10 -10z"/>
<path d="M7900 3100 c0 -5 5 -10 11 -10 5 0 7 5 4 10 -3 6 -8 10 -11 10 -2 0
-4 -4 -4 -10z"/>
<path d="M7855 3060 c-3 -5 1 -10 10 -10 9 0 13 5 10 10 -3 6 -8 10 -10 10 -2
0 -7 -4 -10 -10z"/>
<path d="M14118 3033 c6 -2 18 -2 25 0 6 3 1 5 -13 5 -14 0 -19 -2 -12 -5z"/>
<path d="M7820 3020 c0 -5 5 -10 11 -10 5 0 7 5 4 10 -3 6 -8 10 -11 10 -2 0
-4 -4 -4 -10z"/>
<path d="M7360 2985 c0 -8 4 -15 10 -15 5 0 7 7 4 15 -4 8 -8 15 -10 15 -2 0
-4 -7 -4 -15z"/>
<path d="M7775 2980 c-3 -5 1 -10 10 -10 9 0 13 5 10 10 -3 6 -8 10 -10 10 -2
0 -7 -4 -10 -10z"/>
<path d="M7280 2950 c0 -5 5 -10 11 -10 5 0 7 5 4 10 -3 6 -8 10 -11 10 -2 0
-4 -4 -4 -10z"/>
<path d="M7740 2940 c0 -5 5 -10 11 -10 5 0 7 5 4 10 -3 6 -8 10 -11 10 -2 0
-4 -4 -4 -10z"/>
<path d="M7298 2903 c-10 -2 -18 -9 -18 -14 0 -13 43 -5 48 9 4 12 0 13 -30 5z"/>
<path d="M7695 2900 c-3 -5 1 -10 10 -10 9 0 13 5 10 10 -3 6 -8 10 -10 10 -2
0 -7 -4 -10 -10z"/>
<path d="M7301 2864 c0 -11 3 -14 6 -6 3 7 2 16 -1 19 -3 4 -6 -2 -5 -13z"/>
<path d="M7320 2865 c0 -8 2 -15 4 -15 2 0 6 7 10 15 3 8 1 15 -4 15 -6 0 -10
-7 -10 -15z"/>
<path d="M7659 2868 c0 -2 -2 -11 -4 -21 -3 -15 -1 -16 11 -6 7 6 11 15 8 20
-5 9 -13 12 -15 7z"/>
<path d="M7580 2840 c0 -5 5 -10 10 -10 6 0 10 5 10 10 0 6 -4 10 -10 10 -5 0
-10 -4 -10 -10z"/>
<path d="M7615 2820 c-3 -5 1 -10 10 -10 9 0 13 5 10 10 -3 6 -8 10 -10 10 -2
0 -7 -4 -10 -10z"/>
<path d="M7306 2803 c-11 -11 -6 -23 9 -23 8 0 15 4 15 9 0 13 -16 22 -24 14z"/>
<path d="M7518 2780 c-16 -15 -28 -33 -28 -39 0 -6 16 5 35 25 19 19 35 38 35
40 0 10 -17 -1 -42 -26z"/>
<path d="M7348 2773 c7 -3 16 -2 19 1 4 3 -2 6 -13 5 -11 0 -14 -3 -6 -6z"/>
<path d="M7416 2725 c-3 -8 -1 -15 4 -15 6 0 10 7 10 15 0 8 -2 15 -4 15 -2 0
-6 -7 -10 -15z"/>
<path d="M9990 2599 c0 -5 5 -7 10 -4 6 3 10 8 10 11 0 2 -4 4 -10 4 -5 0 -10
-5 -10 -11z"/>
<path d="M9795 2440 c-3 -6 1 -7 9 -4 18 7 21 14 7 14 -6 0 -13 -4 -16 -10z"/>
<path d="M9655 2330 c-3 -5 -1 -10 4 -10 6 0 11 5 11 10 0 6 -2 10 -4 10 -3 0
-8 -4 -11 -10z"/>
<path d="M9610 2300 c-30 -26 -22 -34 9 -9 13 11 22 22 19 24 -3 3 -15 -4 -28
-15z"/>
<path d="M9526 2235 c-11 -8 -16 -15 -10 -15 5 0 18 7 28 15 11 8 16 15 10 15
-5 0 -18 -7 -28 -15z"/>
<path d="M9483 2215 c-7 -7 -17 -15 -24 -17 -7 -2 -10 -9 -8 -15 3 -7 12 -5
27 8 13 10 22 23 20 28 -1 5 -8 3 -15 -4z"/>
<path d="M9374 2142 c4 -7 1 -12 -8 -12 -9 0 -16 -5 -16 -11 0 -5 -4 -7 -10
-4 -5 3 -10 1 -10 -4 0 -16 12 -13 39 8 18 14 21 20 11 26 -9 5 -11 4 -6 -3z"/>
<path d="M9302 2090 c-7 -12 -17 -18 -22 -15 -6 3 -10 2 -10 -4 0 -6 -6 -8
-12 -6 -18 6 -51 -21 -46 -36 3 -9 11 -6 26 9 12 12 22 19 22 16 0 -3 14 3 30
13 17 9 30 23 30 30 0 18 -3 16 -18 -7z"/>
<path d="M8965 1939 c-4 -6 -5 -12 -2 -15 2 -3 7 2 10 11 7 17 1 20 -8 4z"/>
<path d="M8845 1860 c-3 -6 1 -7 9 -4 18 7 21 14 7 14 -6 0 -13 -4 -16 -10z"/>
<path d="M8528 1743 c7 -3 16 -2 19 1 4 3 -2 6 -13 5 -11 0 -14 -3 -6 -6z"/>
</g>
</svg>
