<svg xmlns="http://www.w3.org/2000/svg" version="1.2" viewBox="0 0 327 327" width="327" height="327">
	<title>StorageChain_RGB_Icon-svg-svg</title>
	<style>
		.s0 { fill: #088DCD } 
		.s1 { fill: #ffffff } 
	</style>
	<path id="Shape 1" class="s0" d="m-1.2 0h331.8v327h-331.8z"/>
	<g id="Layer">
		<g id="Layer">
			<g id="Layer">
				<g id="Layer">
					<path id="Layer" fill-rule="evenodd" class="s1" d="m30.8 151.3c0-8.8 7.2-16 16-16h32.1c8.8 0 16 7.2 16 16v32.1c0 8.8-7.2 16-16 16h-32.1c-8.8 0-16-7.2-16-16zm15.6 32.5h32.8v-32.8h-32.8z"/>
					<path id="Layer" class="s1" d="m113.8 178.6c-6.2 0-11.2-5-11.2-11.2 0-6.2 5-11.2 11.2-11.2 6.2 0 11.2 5 11.2 11.2 0 6.2-5 11.2-11.2 11.2z"/>
				</g>
				<g id="Layer">
					<path id="Layer" fill-rule="evenodd" class="s1" d="m133 151.3c0-8.8 7.2-16 16-16h32.1c8.8 0 16 7.2 16 16v32.1c0 8.8-7.2 16-16 16h-32.1c-8.8 0-16-7.2-16-16zm15.6 32.5h32.8v-32.8h-32.8z"/>
					<path id="Layer" class="s1" d="m216.1 178.6c-6.2 0-11.2-5-11.2-11.2 0-6.2 5-11.2 11.2-11.2 6.2 0 11.2 5 11.2 11.2 0 6.2-5 11.2-11.2 11.2z"/>
				</g>
				<g id="Layer">
					<path id="Layer" fill-rule="evenodd" class="s1" d="m235.3 151.3c0-8.8 7.2-16 16-16h32.1c8.8 0 16 7.2 16 16v32.1c0 8.8-7.2 16-16 16h-32.1c-8.8 0-16-7.2-16-16zm15.6 32.5h32.8v-32.8h-32.8z"/>
				</g>
			</g>
		</g>
	</g>
</svg>